<?xml version="1.0" encoding="UTF-8" standalone="no"?>
<!-- Created with Inkscape (http://www.inkscape.org/) -->

<svg
   width="200.24297mm"
   height="116.94267mm"
   viewBox="0 0 200.24297 116.94267"
   version="1.1"
   id="svg5"
   inkscape:version="1.2 (dc2aedaf03, 2022-05-15)"
   sodipodi:docname="andopt.svg"
   xml:space="preserve"
   inkscape:export-filename="logo-green-without-text.svg"
   inkscape:export-xdpi="96"
   inkscape:export-ydpi="96"
   xmlns:inkscape="http://www.inkscape.org/namespaces/inkscape"
   xmlns:sodipodi="http://sodipodi.sourceforge.net/DTD/sodipodi-0.dtd"
   xmlns="http://www.w3.org/2000/svg"
   xmlns:svg="http://www.w3.org/2000/svg"><sodipodi:namedview
     id="namedview7"
     pagecolor="#ffffff"
     bordercolor="#000000"
     borderopacity="0.25"
     inkscape:showpageshadow="2"
     inkscape:pageopacity="0.0"
     inkscape:pagecheckerboard="0"
     inkscape:deskcolor="#d1d1d1"
     inkscape:document-units="mm"
     showgrid="false"
     inkscape:zoom="0.50333193"
     inkscape:cx="397.3521"
     inkscape:cy="562.25322"
     inkscape:window-width="1366"
     inkscape:window-height="745"
     inkscape:window-x="-8"
     inkscape:window-y="-8"
     inkscape:window-maximized="1"
     inkscape:current-layer="layer1" /><defs
     id="defs2" /><g
     inkscape:label="Layer 1"
     inkscape:groupmode="layer"
     id="layer1"
     transform="translate(-5.9149872,-73.085226)"><path
       style="fill:#f9f9f9;fill-opacity:1;stroke-width:0.264583"
       d="m 40.243046,189.65838 c -0.70106,-0.21602 -1.84017,-0.92499 -2.71205,-1.68796 -2.56106,-2.24112 -3.31204,-2.73825 -3.90302,-2.5837 -0.51828,0.13553 -0.52569,0.11146 -0.13309,-0.43203 1.72675,-2.39035 2.49096,-5.51721 1.8968,-7.76093 -0.52067,-1.9662 -2.04376,-4.09044 -4.35711,-6.07685 -2.64161,-2.26826 -4.02687,-3.96716 -5.47438,-6.71381 -0.65188,-1.23693 -1.33364,-2.44225 -1.51503,-2.67849 -0.61491,-0.80084 -2.1616,-1.55285 -3.19585,-1.55385 -0.8366,-8e-4 -1.21074,0.18643 -2.05052,1.02621 -0.97851,0.97852 -1.02715,1.10708 -1.02607,2.71198 0.001,2.04494 0.45964,2.82594 3.75857,6.40562 2.80536,3.04411 3.14848,3.57774 3.16709,4.92555 0.0222,1.60692 -0.95139,2.53822 -3.09034,2.95618 -3.2988,0.64461 -7.54062,-1.77839 -7.54062,-4.30732 0,-0.94218 -0.46037,-0.98858 -0.691,-0.0696 -0.43933,1.75039 1.48171,4.32112 3.92687,5.25493 0.91385,0.349 1.77931,0.44245 3.44497,0.37195 1.95347,-0.0827 2.34353,-0.18495 3.20124,-0.83937 1.2596,-0.96105 1.77409,-1.76565 1.94531,-3.0422 0.21323,-1.58969 -0.64503,-3.15825 -3.16926,-5.79217 -3.0717,-3.20519 -3.89563,-4.40885 -3.89563,-5.69104 0,-1.30214 0.3423,-1.94936 1.29022,-2.43955 1.57796,-0.81599 3.0258,0.27186 4.5553,3.42268 1.34659,2.774 2.49691,4.28977 4.52819,5.96675 1.98033,1.63491 3.71652,3.65948 4.47533,5.21865 0.45454,0.93397 0.53432,1.51476 0.45752,3.3306 -0.0851,2.01199 -0.17461,2.32134 -1.05078,3.63126 -1.08472,1.62173 -3.16004,3.02767 -5.28147,3.57796 -6.8062,1.7655 -14.46078,0.25824 -18.2347295,-3.59058 -2.65407,-2.70674 -3.86806,-6.16712 -3.62383,-10.32943 0.14678,-2.50156 0.30651,-3.17653 1.60732,-6.79241 1.33821,-3.71984 1.70417,-6.33145 1.8474,-13.18363 0.12004,-5.74279 0.19535,-6.56506 0.7875795,-8.59896 1.46572,-5.03376 4.098,-10.50904 7.17193,-14.91796 1.86679,-2.67753 2.68644,-3.47931 4.95701,-4.84896 1.33155,-0.80322 2.29203,-1.17531 6.26449,-2.42683 2.03826,-0.64216 4.17026,-1.91509 5.06519,-3.02421 0.59431,-0.73657 0.67488,-1.12252 0.79375,-3.80224 0.12536,-2.82627 0.1708,-3.02088 0.86767,-3.71603 0.72061,-0.71882 0.79506,-0.73296 3.70417,-0.70363 3.29667,0.0333 5.48438,0.60808 8.96802,2.3564 1.99807,1.00276 2.32285,0.85637 0.83004,-0.37413 -1.60032,-1.31911 -5.70831,-2.81537 -8.54315,-3.11167 -1.40542,-0.14689 -1.59342,-0.23403 -1.59342,-0.73851 0,-1.78886 3.44601,-5.18493 6.97337,-6.87229 2.26379,-1.08292 2.62172,-1.37295 5.56709,-4.510987 1.73127,-1.84452 4.23158,-4.22812 5.55625,-5.296889 1.32467,-1.068765 3.22802,-2.607923 4.22966,-3.420345 1.03724,-0.841298 2.08427,-1.477134 2.43239,-1.477134 2.04444,0 1.81921,4.44206 -0.47397,9.348318 -1.47923,3.16479 -1.52116,4.559667 -0.21679,7.211047 0.49493,1.00605 1.44833,2.42449 2.11866,3.15209 1.73379,1.88192 2.44415,2.90598 3.57984,5.16073 1.62596,3.22808 1.9835,4.54877 1.9835,7.32665 0,1.93674 0.11311,2.70437 0.51438,3.49094 l 0.51439,1.00827 -0.64182,-0.12269 c -0.51583,-0.0986 -0.73365,0.0498 -1.10969,0.75602 -0.25734,0.48329 -0.80568,1.23066 -1.21854,1.66082 -1.29126,1.34536 -1.54285,2.50284 -0.72237,3.32332 0.50541,0.50541 0.50057,0.51957 -0.41692,1.21938 -0.56896,0.43397 -1.25336,1.3882 -1.76812,2.46521 -0.57468,1.20238 -1.07245,1.86754 -1.57654,2.1067 -0.82602,0.39191 -8.79387,0.96491 -13.15394,0.94596 -2.41763,-0.0105 -3.08538,-0.11997 -5.14598,-0.84356 -1.30232,-0.45732 -2.4105,-0.78884 -2.46262,-0.73671 -0.0521,0.0521 0.25558,0.34426 0.68381,0.64918 2.64073,1.88036 7.92671,2.90598 11.02583,2.13929 0.58209,-0.144 2.76455,-0.37704 4.84992,-0.51788 4.83296,-0.32639 5.50968,-0.64625 6.68978,-3.16196 1.14012,-2.43047 1.62662,-2.90066 2.8339,-2.73893 1.55778,0.20868 3.7917,-0.33912 6.578826,-1.61324 2.606093,-1.19137 3.312515,-1.35902 9.077786,-2.15437 4.22012,-0.58219 5.268896,-0.84552 6.450452,-1.6196 0.92262,-0.60443 1.236958,-0.66293 3.10629,-0.57804 1.974503,0.0897 2.127208,0.14186 3.0163,1.03095 1.232088,1.23209 1.443958,2.45945 0.692513,4.01173 -0.762215,1.57452 -2.324637,3.03023 -3.745945,3.4901 -0.65188,0.21091 -1.661485,0.56541 -2.243569,0.78776 -0.582083,0.22236 -1.813914,0.40951 -2.737403,0.4159 -2.956575,0.0205 -5.142362,0.9035 -8.966729,3.62252 -0.907481,0.64519 -2.180791,1.6325 -2.829578,2.19402 -1.628532,1.40949 -4.518933,2.95706 -8.103373,4.33869 -4.28215,1.65058 -5.43281,1.857 -8.23008,1.47643 -1.26069,-0.17151 -2.57243,-0.2415 -2.91498,-0.15553 -0.75196,0.18873 -7.31651,6.64142 -7.65066,7.52029 -0.46675,1.22764 1.65486,8.96459 3.06512,11.17769 1.44735,2.27131 1.77908,3.15561 2.00379,5.34155 0.21068,2.0495 0.90335,4.05695 1.59433,4.6206 0.20555,0.16768 0.86084,0.43506 1.45619,0.5942 0.59536,0.15913 1.27146,0.4982 1.50244,0.75347 0.6869,0.75912 1.55182,3.01585 1.69895,4.43289 0.11459,1.10357 0.0376,1.44887 -0.46402,2.08258 -0.33076,0.41782 -0.99429,0.92384 -1.4745,1.12448 -1.18935,0.49694 -3.58846,0.45871 -5.31221,-0.0847 -2.24861,-0.70881 -2.9972,-1.63852 -4.1391,-5.14058 -1.42743,-4.37775 -4.67908,-10.54029 -6.50165,-12.32197 -1.41325,-1.38155 -2.79842,-1.51404 -3.0256,-0.28941 -0.0619,0.33365 -0.25335,1.38055 -0.42546,2.32643 -0.47673,2.62006 -1.06055,3.69281 -2.73614,5.02751 -2.26166,1.80153 -2.24246,2.61801 0.0966,4.10482 1.03074,0.6552 5.44295,2.24417 6.23592,2.24575 0.80113,0.002 2.2041,0.99538 2.51902,1.78434 0.15986,0.40052 0.69852,1.56972 1.19701,2.59823 0.7221,1.48988 0.85633,2.00083 0.66034,2.51354 -0.48698,1.27392 -2.43437,2.40746 -4.92778,2.8684 -1.90652,0.35243 -2.08303,0.34652 -3.59916,-0.12064 z m -2.14522,-69.70609 c -0.50412,-2.69644 -0.52425,-3.12459 -0.19208,-4.08534 0.66037,-1.91003 2.57194,-2.34958 6.85335,-1.57589 1.38129,0.24961 0.69551,-0.31196 -1.19041,-0.97481 -1.05796,-0.37184 -2.3096,-0.5618 -3.90813,-0.59312 -2.17983,-0.0427 -2.38883,-5.2e-4 -2.85991,0.57855 -0.63042,0.77481 -0.65743,2.24718 -0.0915,4.98702 0.54529,2.63995 1.51323,5.11431 1.86359,4.76395 0.0485,-0.0485 -0.16517,-1.44369 -0.47491,-3.10036 z m -0.74707,-5.65533 c 0,-0.055 0.20836,-0.2633 0.46302,-0.46303 0.41965,-0.3291 0.42901,-0.31974 0.0999,0.0999 -0.34564,0.44073 -0.56291,0.58089 -0.56291,0.36313 z m 17.61794,50.56638 c -0.70922,-1.21019 -2.00752,-4.47989 -2.00752,-5.05583 0,-0.27584 0.29109,-0.25163 1.3713,0.11406 1.15935,0.39247 1.46421,0.64178 1.97242,1.61298 0.33061,0.63182 0.6065,1.48001 0.61307,1.88486 0.0145,0.8932 -0.65228,2.57119 -1.02172,2.57119 -0.14681,0 -0.56421,-0.50727 -0.92755,-1.12726 z m 52.695944,-8.91554 c -1.81769,-0.35272 -2.4646,-1.53589 -1.79817,-3.28876 0.31242,-0.82172 1.53813,-1.4851 2.74396,-1.4851 1.05116,0 1.66285,-0.52582 1.17695,-1.01172 -0.42012,-0.42011 -1.88372,-0.39304 -2.92585,0.0541 -0.46827,0.20093 -1.26042,0.79492 -1.76035,1.31998 -0.78355,0.82295 -0.92481,1.17405 -1.02398,2.54509 l -0.11504,1.59044 h -1.02939 c -1.88853,0 -6.108965,-0.81245 -7.973465,-1.53492 -2.49939,-0.96849 -3.104381,-1.5639 -3.104381,-3.05524 0,-1.02228 0.126426,-1.28686 0.96801,-2.02578 0.908196,-0.79741 1.059421,-0.84055 2.447396,-0.69819 0.813663,0.0834 1.881508,0.23119 2.37299,0.32832 1.064696,0.21041 1.053949,-0.22889 -0.02532,-1.03467 -0.504401,-0.37659 -1.135753,-0.51629 -2.386449,-0.52806 -2.087562,-0.0196 -3.173873,0.56779 -4.276841,2.31273 -0.750528,1.18737 -0.788829,1.20873 -2.167845,1.20873 -2.122022,0 -4.074152,-0.50357 -4.81184,-1.24126 -0.53036,-0.53036 -0.621548,-0.8232 -0.496424,-1.59424 0.300376,-1.85101 1.975339,-2.71527 5.280485,-2.72466 1.759538,-0.005 4.011274,-0.53362 7.990623,-1.87589 3.713531,-1.2526 5.218181,-1.97054 7.400421,-3.53111 1.98096,-1.41663 2.63064,-2.125 2.42955,-2.64903 -0.2645,-0.68928 -0.90846,-0.46249 -2.89302,1.0189 -2.2721,1.69601 -3.27791,2.21994 -6.320154,3.29218 -2.890282,1.01869 -6.01794,1.75736 -9.120881,2.15412 -5.386065,0.68869 -7.809029,-0.9029 -6.279962,-4.12517 0.775227,-1.63367 2.437387,-2.37594 6.985611,-3.11957 6.226686,-1.01806 9.254043,-2.71391 17.762916,-9.95032 5.25868,-4.47227 8.92702,-8.45158 9.31857,-10.10853 0.29744,-1.25872 -0.12924,-3.69796 -0.75662,-4.32533 -0.53682,-0.53683 -0.89337,-0.57868 -6.10868,-0.71707 -7.73093,-0.20515 -10.958687,-1.04494 -13.633847,-3.54724 -1.691426,-1.58214 -2.091188,-2.35804 -2.091188,-4.05883 0,-1.14641 0.119738,-1.47614 0.773399,-2.1298 1.058965,-1.05897 2.116524,-1.00963 4.689245,0.21879 l 2.077981,0.99218 6.51638,0.0789 c 6.32722,0.0766 6.59605,0.0584 9.26042,-0.62645 3.35308,-0.86189 6.45809,-1.056 10.83197,-0.67717 4.08379,0.35371 6.9778,1.16248 10.90926,3.04874 4.89743,2.34971 5.90041,2.63818 8.58857,2.47016 3.1757,-0.1985 6.14443,-1.13805 11.51199,-3.64336 8.24696,-3.849247 22.95266,-12.643213 27.76309,-16.602236 1.71707,-1.413169 4.75895,-3.916482 6.75972,-5.562915 2.00077,-1.646434 4.50945,-3.59055 5.57484,-4.320257 1.72757,-1.183251 5.34137,-3.031054 6.88785,-3.521888 l 0.57081,-0.18117 -0.0677,22.165639 -0.0677,22.165627 -2.77812,0.58057 c -7.52082,1.57168 -10.54859,2.34994 -15.70121,4.03584 -3.07876,1.00735 -6.96697,2.14897 -8.64046,2.53694 -4.55321,1.05557 -9.22557,2.49607 -13.75833,4.24172 -1.38245,0.53241 -3.82283,1.44452 -5.42307,2.0269 -4.93322,1.79539 -5.45597,2.20463 -8.91749,6.98132 -1.70584,2.35397 -5.12773,4.86913 -10.79486,7.93445 -6.23528,3.37265 -16.33581,8.205 -19.438,9.29965 -2.58226,0.91119 -10.12517,1.43361 -12.90645,0.89391 z m 9.00074,-5.75177 c 0.52011,-0.2468 1.68437,-1.13977 2.58725,-1.98437 1.51658,-1.41869 1.73594,-1.53564 2.88027,-1.53564 0.75841,0 1.17527,-0.10259 1.07515,-0.26459 -0.0899,-0.14552 -0.51241,-0.26458 -0.93882,-0.26458 -0.42641,0 -1.40165,-0.23806 -2.1672,-0.52903 -0.76554,-0.29097 -1.47948,-0.5291 -1.58653,-0.52917 -0.10704,-7e-5 -0.54499,0.68448 -0.9732,1.52122 -0.79751,1.55834 -2.11512,2.71198 -3.09745,2.71198 -0.71719,0 -1.54781,0.64276 -1.31578,1.0182 0.28179,0.45593 2.45885,0.36727 3.53631,-0.14402 z m 1.38329,-2.34253 c 0,-0.08 0.17954,-0.49261 0.39897,-0.91693 0.26837,-0.51898 0.53354,-0.71987 0.81011,-0.61374 0.33871,0.12998 0.28301,0.29153 -0.31617,0.91694 -0.7366,0.76885 -0.89291,0.87628 -0.89291,0.61373 z m -11.10718,-0.92596 c 1.08848,-0.29822 3.07304,-1.07121 4.41013,-1.71775 1.34087,-0.64836 2.61637,-1.10442 2.84427,-1.01697 0.78375,0.30076 0.39645,-0.29649 -0.5861,-0.90381 -0.54179,-0.33488 -1.22504,-0.94875 -1.51834,-1.36414 l -0.53326,-0.75526 -1.38097,1.68724 c -1.49977,1.83238 -3.31753,3.04601 -5.55615,3.70956 -0.76399,0.22646 -1.38906,0.52236 -1.38906,0.65755 0,0.40724 1.61111,0.2785 3.70948,-0.29642 z m 3.83178,-3.25807 c 0.47771,-0.72907 1.03387,-0.89968 1.33653,-0.40998 0.2362,0.38219 -0.11285,0.69223 -1.03623,0.92043 l -0.7574,0.18717 z m 20.9014,-15.68328 c 1.1386,-2.98139 4.8571,-7.64544 7.60682,-9.5411 1.59529,-1.0998 2.14085,-1.66699 1.6034,-1.66699 -0.10039,0 -0.96359,0.4682 -1.91823,1.04043 -2.79241,1.67386 -4.33724,1.965 -10.53259,1.98499 -2.94652,0.01 -5.35753,0.0531 -5.35781,0.0969 -2.7e-4,0.0438 0.41239,0.25216 0.91704,0.46302 1.24074,0.51841 8.12415,0.5199 10.32507,0.002 0.87192,-0.20509 1.61522,-0.34297 1.65178,-0.30642 0.0366,0.0366 -0.35236,0.53363 -0.86425,1.10462 -2.24925,2.50889 -4.34911,6.23008 -4.35575,7.71888 -0.003,0.7315 0.48274,0.26017 0.92452,-0.8966 z m -63.455854,1.05094 c -0.41759,-0.41759 -0.14011,-1.34111 0.50699,-1.68743 0.37586,-0.20115 0.99141,-0.89134 1.36788,-1.53374 0.63169,-1.0779 0.71165,-1.13088 1.03641,-0.68674 0.47352,0.64759 0.44504,1.01241 -0.17371,2.22527 -0.74147,1.4534 -2.11969,2.30052 -2.73757,1.68264 z"
       id="path129" /></g></svg>
